<?xml version="1.0" encoding="utf-8"?>
<!-- Generator: Adobe Illustrator 16.0.0, SVG Export Plug-In . SVG Version: 6.00 Build 0)  -->
<!DOCTYPE svg PUBLIC "-//W3C//DTD SVG 1.1//EN" "http://www.w3.org/Graphics/SVG/1.1/DTD/svg11.dtd">
<svg version="1.1" id="Layer_1" xmlns="http://www.w3.org/2000/svg" xmlns:xlink="http://www.w3.org/1999/xlink" x="0px" y="0px"
	 width="350px" height="134px" viewBox="0 0 350 134" enable-background="new 0 0 350 134" xml:space="preserve">
<g>
	<g>
		
			<text transform="matrix(1 0 0 1 200.2197 101.3926)" fill="#F8F6F8" font-family="'GearedSlab-Regular'" font-size="95.8914" letter-spacing="2" text-decoration=" underline">2014</text>
	</g>
	<g>
		<g>
			<polygon fill="#E4504A" points="86.757,0.86 63.572,27.627 110.969,27.627 			"/>
		</g>
		<g>
			<rect x="72.308" y="27.119" fill="#E4504A" width="28.996" height="11.709"/>
		</g>
		<g>
			<polygon fill="#E4504A" points="50.189,37.302 125.469,37.302 135.504,47.898 39.034,47.898 			"/>
		</g>
		<g>
			<polygon fill="#E4504A" points="51.49,46.782 51.862,62.398 122.681,62.398 122.681,46.782 			"/>
		</g>
		<g>
			<polygon fill="#E4504A" points="6.694,61.38 166.174,61.38 173.982,70.86 0.002,70.86 			"/>
		</g>
		<g>
			<polygon fill="#E4504A" points="12.64,70.35 12.268,97.673 161.159,97.673 161.159,70.35 			"/>
		</g>
		<g>
			<line fill="none" stroke="#9A2020" stroke-width="0.1" stroke-miterlimit="10" x1="3.347" y1="65.611" x2="18.775" y2="65.611"/>
			<line fill="none" stroke="#9A2020" stroke-width="0.1" stroke-miterlimit="10" x1="1.927" y1="68.135" x2="18.775" y2="68.135"/>
			<line fill="none" stroke="#9A2020" stroke-width="0.1" stroke-miterlimit="10" x1="0.002" y1="70.35" x2="20.103" y2="70.35"/>
			
				<line fill="none" stroke="#9A2020" stroke-width="0.1" stroke-miterlimit="10" x1="12.616" y1="72.865" x2="20.448" y2="72.865"/>
			
				<line fill="none" stroke="#9A2020" stroke-width="0.1" stroke-miterlimit="10" x1="12.616" y1="75.664" x2="18.775" y2="75.664"/>
			<line fill="none" stroke="#9A2020" stroke-width="0.1" stroke-miterlimit="10" x1="12.53" y1="78.459" x2="20.448" y2="78.459"/>
			
				<line fill="none" stroke="#9A2020" stroke-width="0.1" stroke-miterlimit="10" x1="12.504" y1="80.496" x2="18.775" y2="80.496"/>
			
				<line fill="none" stroke="#9A2020" stroke-width="0.1" stroke-miterlimit="10" x1="12.778" y1="82.781" x2="20.616" y2="82.781"/>
			
				<line fill="none" stroke="#9A2020" stroke-width="0.1" stroke-miterlimit="10" x1="12.436" y1="85.071" x2="18.775" y2="85.071"/>
			
				<line fill="none" stroke="#9A2020" stroke-width="0.1" stroke-miterlimit="10" x1="12.778" y1="87.108" x2="19.283" y2="87.108"/>
			
				<line fill="none" stroke="#9A2020" stroke-width="0.1" stroke-miterlimit="10" x1="12.436" y1="89.394" x2="17.806" y2="89.394"/>
			<line fill="none" stroke="#9A2020" stroke-width="0.1" stroke-miterlimit="10" x1="12.268" y1="92.34" x2="18.775" y2="92.34"/>
			
				<line fill="none" stroke="#9A2020" stroke-width="0.1" stroke-miterlimit="10" x1="12.436" y1="94.479" x2="39.965" y2="94.479"/>
			
				<line fill="none" stroke="#9A2020" stroke-width="0.1" stroke-miterlimit="10" x1="76.173" y1="13.075" x2="87.085" y2="13.075"/>
			
				<line fill="none" stroke="#9A2020" stroke-width="0.1" stroke-miterlimit="10" x1="74.527" y1="14.977" x2="86.993" y2="14.977"/>
			<line fill="none" stroke="#9A2020" stroke-width="0.1" stroke-miterlimit="10" x1="72.69" y1="17.102" x2="87.27" y2="17.102"/>
			<line fill="none" stroke="#9A2020" stroke-width="0.1" stroke-miterlimit="10" x1="70.979" y1="19.075" x2="87.27" y2="19.075"/>
			
				<line fill="none" stroke="#9A2020" stroke-width="0.1" stroke-miterlimit="10" x1="68.893" y1="21.406" x2="86.762" y2="21.406"/>
			
				<line fill="none" stroke="#9A2020" stroke-width="0.1" stroke-miterlimit="10" x1="67.376" y1="23.742" x2="86.993" y2="23.742"/>
			
				<line fill="none" stroke="#9A2020" stroke-width="0.1" stroke-miterlimit="10" x1="65.057" y1="25.911" x2="86.993" y2="25.911"/>
			<line fill="none" stroke="#9A2020" stroke-width="0.1" stroke-miterlimit="10" x1="49.22" y1="38.828" x2="73.793" y2="38.828"/>
			
				<line fill="none" stroke="#9A2020" stroke-width="0.1" stroke-miterlimit="10" x1="46.646" y1="40.669" x2="81.752" y2="40.669"/>
			
				<line fill="none" stroke="#9A2020" stroke-width="0.1" stroke-miterlimit="10" x1="44.611" y1="42.599" x2="86.482" y2="42.599"/>
			
				<line fill="none" stroke="#9A2020" stroke-width="0.1" stroke-miterlimit="10" x1="42.722" y1="44.393" x2="89.453" y2="44.393"/>
			
				<line fill="none" stroke="#9A2020" stroke-width="0.1" stroke-miterlimit="10" x1="41.028" y1="46.002" x2="55.022" y2="46.002"/>
			
				<line fill="none" stroke="#9A2020" stroke-width="0.1" stroke-miterlimit="10" x1="6.482" y1="61.888" x2="114.312" y2="61.888"/>
			<line fill="none" stroke="#9A2020" stroke-width="0.1" stroke-miterlimit="10" x1="4.839" y1="63.711" x2="99.59" y2="63.711"/>
			
				<line fill="none" stroke="#9A2020" stroke-width="0.1" stroke-miterlimit="10" x1="51.515" y1="47.898" x2="55.022" y2="47.898"/>
			
				<line fill="none" stroke="#9A2020" stroke-width="0.1" stroke-miterlimit="10" x1="72.308" y1="27.627" x2="76.025" y2="27.627"/>
			
				<line fill="none" stroke="#9A2020" stroke-width="0.1" stroke-miterlimit="10" x1="72.308" y1="29.635" x2="76.025" y2="29.635"/>
			<line fill="none" stroke="#9A2020" stroke-width="0.1" stroke-miterlimit="10" x1="72.308" y1="31.67" x2="74.527" y2="31.67"/>
			<line fill="none" stroke="#9A2020" stroke-width="0.1" stroke-miterlimit="10" x1="72.308" y1="33.48" x2="76.025" y2="33.48"/>
			
				<line fill="none" stroke="#9A2020" stroke-width="0.1" stroke-miterlimit="10" x1="72.308" y1="34.976" x2="76.025" y2="34.976"/>
			
				<line fill="none" stroke="#9A2020" stroke-width="0.1" stroke-miterlimit="10" x1="72.308" y1="36.794" x2="74.527" y2="36.794"/>
			
				<line fill="none" stroke="#9A2020" stroke-width="0.1" stroke-miterlimit="10" x1="51.565" y1="49.981" x2="55.022" y2="49.981"/>
			
				<line fill="none" stroke="#9A2020" stroke-width="0.1" stroke-miterlimit="10" x1="51.626" y1="52.524" x2="53.347" y2="52.524"/>
			
				<line fill="none" stroke="#9A2020" stroke-width="0.1" stroke-miterlimit="10" x1="51.626" y1="54.588" x2="55.022" y2="54.588"/>
			
				<line fill="none" stroke="#9A2020" stroke-width="0.1" stroke-miterlimit="10" x1="51.748" y1="56.493" x2="55.022" y2="56.493"/>
			<line fill="none" stroke="#9A2020" stroke-width="0.1" stroke-miterlimit="10" x1="51.779" y1="58.37" x2="56.695" y2="58.37"/>
			
				<line fill="none" stroke="#9A2020" stroke-width="0.1" stroke-miterlimit="10" x1="51.821" y1="60.152" x2="60.745" y2="60.152"/>
			
				<line fill="none" stroke="#9A2020" stroke-width="0.1" stroke-miterlimit="10" x1="12.268" y1="96.656" x2="62.419" y2="96.656"/>
		</g>
		<g>
			<defs>
				<polygon id="SVGID_1_" points="25.611,99.87 146.608,99.87 146.608,113.328 86.818,133.14 25.611,112.428 				"/>
			</defs>
			<clipPath id="SVGID_2_">
				<use xlink:href="#SVGID_1_"  overflow="visible"/>
			</clipPath>
			<g clip-path="url(#SVGID_2_)">
				<rect x="28.071" y="99.87" fill="#326F79" width="2.698" height="57.18"/>
				<rect x="33.448" y="99.87" fill="#326F79" width="2.696" height="57.18"/>
				<rect x="38.825" y="99.87" fill="#326F79" width="2.696" height="57.18"/>
				<rect x="44.197" y="99.87" fill="#326F79" width="2.696" height="57.18"/>
				<rect x="49.575" y="99.87" fill="#326F79" width="2.696" height="57.18"/>
				<rect x="54.947" y="99.87" fill="#326F79" width="2.701" height="57.18"/>
				<rect x="60.861" y="99.87" fill="#326F79" width="2.696" height="57.18"/>
				<rect x="66.773" y="99.87" fill="#326F79" width="2.698" height="57.18"/>
				<rect x="72.15" y="99.87" fill="#326F79" width="2.693" height="57.18"/>
				<rect x="77.527" y="99.87" fill="#326F79" width="2.698" height="57.18"/>
				<rect x="82.899" y="99.87" fill="#326F79" width="2.698" height="57.18"/>
				<rect x="88.274" y="99.87" fill="#326F79" width="2.695" height="57.18"/>
				<rect x="93.654" y="99.87" fill="#326F79" width="2.693" height="57.18"/>
				<rect x="99.026" y="99.87" fill="#326F79" width="2.696" height="57.18"/>
				<rect x="104.4" y="99.87" fill="#326F79" width="2.701" height="57.18"/>
				<rect x="109.778" y="99.87" fill="#326F79" width="2.696" height="57.18"/>
				<rect x="115.152" y="99.87" fill="#326F79" width="2.696" height="57.18"/>
				<rect x="120.527" y="99.87" fill="#326F79" width="2.701" height="57.18"/>
				<rect x="125.904" y="99.87" fill="#326F79" width="2.696" height="57.18"/>
				<rect x="131.279" y="99.87" fill="#326F79" width="2.696" height="57.18"/>
				<rect x="136.653" y="99.87" fill="#326F79" width="2.696" height="57.18"/>
				<rect x="142.565" y="99.87" fill="#326F79" width="2.698" height="57.18"/>
			</g>
		</g>
		<polygon fill="#326F79" points="148.001,99.87 160.585,99.87 160.585,111.471 148.032,113.794 		"/>
		<polygon fill="#326F79" points="25.611,99.87 12.484,99.87 12.268,109.355 25.611,112.428 		"/>
	</g>
</g>
</svg>
