<?xml version="1.0" encoding="utf-8"?>
<!-- Generator: Adobe Illustrator 16.0.0, SVG Export Plug-In . SVG Version: 6.00 Build 0)  -->
<!DOCTYPE svg PUBLIC "-//W3C//DTD SVG 1.1//EN" "http://www.w3.org/Graphics/SVG/1.1/DTD/svg11.dtd">
<svg version="1.1" id="Layer_1" xmlns="http://www.w3.org/2000/svg" xmlns:xlink="http://www.w3.org/1999/xlink" x="0px" y="0px"
	 width="300px" height="300px" viewBox="0 0 300 300" enable-background="new 0 0 300 300" xml:space="preserve">
<g>
	<path fill="#F9F6F8" d="M299.995,138.273c0,7.818,0,15.636,0,23.443c-0.729,4.185-1.43,8.378-2.208,12.562
		c-10.271,55.158-41.374,93.812-93.174,114.938c-13.521,5.509-28.562,7.286-42.896,10.784c-7.808,0-15.621,0-23.434,0
		c-4.208-0.732-8.427-1.438-12.625-2.225C70.509,287.467,31.86,256.37,10.77,204.545c-5.499-13.499-7.277-28.507-10.765-42.828
		c0-7.808,0-15.625,0-23.443c0.734-4.184,1.43-8.378,2.203-12.553C12.49,70.552,43.591,31.908,95.397,10.784
		C108.906,5.276,123.943,3.488,138.283,0c7.812,0,15.626,0,23.434,0c4.208,0.744,8.432,1.44,12.631,2.213
		c55.148,10.311,93.793,41.408,114.889,93.232C294.725,108.955,296.512,123.962,299.995,138.273z M275.025,149.966
		C274.952,81.269,219.305,25.521,150.26,24.97C81.873,24.429,24.907,81.298,24.975,150.034
		c0.067,68.696,55.724,124.444,124.769,124.995C218.132,275.562,275.098,218.702,275.025,149.966z"/>
	<path fill="#F9F6F8" d="M221.35,217.648c-4.252,3.875-8.271,7.547-12.701,11.596c-12.979-11.52-26.354-23.395-39.73-35.271
		c-9.777-8.688-19.163-17.878-29.454-25.896c-6.75-5.258-8.542-11.637-8.18-19.297c0.836-17.742,1.817-35.475,2.74-53.207
		c0.662-12.476,1.319-24.951,2-37.417c0.174-3.083,0.454-6.156,0.706-9.528c5.262,0,10.045,0,15.711,0
		c0.74,13.162,1.509,26.313,2.229,39.475c1.011,18.708,1.826,37.426,3.138,56.115c0.221,3.15,1.814,6.805,3.95,9.143
		c18.321,20.004,36.914,39.773,55.409,59.623C218.471,214.382,219.723,215.832,221.35,217.648z"/>
</g>
</svg>
