<?xml version="1.0" encoding="utf-8"?>
<!-- Generator: Adobe Illustrator 16.0.0, SVG Export Plug-In . SVG Version: 6.00 Build 0)  -->
<!DOCTYPE svg PUBLIC "-//W3C//DTD SVG 1.1//EN" "http://www.w3.org/Graphics/SVG/1.1/DTD/svg11.dtd">
<svg version="1.1" id="Layer_1" xmlns="http://www.w3.org/2000/svg" xmlns:xlink="http://www.w3.org/1999/xlink" x="0px" y="0px"
	 width="300px" height="300px" viewBox="0 0 300 300" enable-background="new 0 0 300 300" xml:space="preserve">
<g>
	<path fill="#F9F6F8" d="M300,25.776c0,89.457,0,178.914,0,268.36c-100.004,0-200.002,0-300,0c0-89.446,0-178.903,0-268.36
		c10.325,0.157,20.65,0.394,30.976,0.453c14.229,0.069,14.229,0.01,14.229,14.455c0,21.005,1.77,22.775,22.656,22.696
		c11.717-0.049,16.271-4.553,16.349-16.255c0.05-6.766,0.01-13.541,0.01-20.552c6.117,0,11.461,0,17.465,0
		c0,8.142-0.152,15.901,0.044,23.66c0.207,8.004,4.818,12.646,12.77,13.088c3.506,0.197,7.025,0.069,10.541,0.049
		c10.886-0.088,15.498-4.77,15.572-15.842c0.044-6.952,0.01-13.905,0.01-20.945c5.949,0,11.082,0,16.741,0
		c0,5.507,0,10.561,0,15.625c0,18.713,2.482,21.182,21.384,21.172c13.78-0.02,17.764-3.983,17.794-17.76
		c0.016-6.353,0-12.705,0-19.559c3.284,0,5.596,0,7.906,0c2.447,0,4.906,0,7.773,0c0,5.369,0,9.854,0,14.328
		c0,21.123,1.994,23.109,23.111,22.991c11.535-0.069,15.812-4.347,15.882-16c0.039-6.962,0.007-13.934,0.007-21.604
		C268.061,25.776,284.029,25.776,300,25.776z M21.467,272.602c86.044,0,171.436,0,256.934,0c0-57.151,0-113.845,0-170.583
		c-85.849,0-171.248,0-256.934,0C21.467,159.021,21.467,215.564,21.467,272.602z"/>
	<path fill="#F9F6F8" d="M185.152,5.863c0.635,2.183,1.779,4.366,1.812,6.559c0.184,11.692-0.061,23.394,0.152,35.077
		c0.094,4.897-1.477,7.041-6.674,6.942c-15.385-0.285-13.49,1.249-13.586-13.374c-0.066-9.362-0.137-18.713,0.074-28.065
		c0.055-2.399,1.18-4.759,1.812-7.139C174.217,5.863,179.686,5.863,185.152,5.863z"/>
	<path fill="#F9F6F8" d="M128.904,5.863c0.732,2.114,2.064,4.209,2.104,6.343c0.201,11.879-0.064,23.758,0.172,35.637
		c0.094,4.769-1.593,6.638-6.406,6.579c-16.182-0.187-13.434,1.033-13.615-13.207c-0.128-9.342-0.113-18.694,0.039-28.036
		c0.04-2.449,0.841-4.877,1.299-7.316C117.964,5.863,123.437,5.863,128.904,5.863z"/>
	<path fill="#F9F6F8" d="M240.23,5.863c0.492,1.642,1.399,3.285,1.416,4.937c0.117,12.843,0.027,25.695,0.094,38.538
		c0.015,3.393-1.393,5.005-4.838,5.015c-18.139,0.079-14.957,1.19-15.146-13.453c-0.123-9.342-0.16-18.684,0.074-28.026
		c0.061-2.35,1.298-4.681,1.996-7.011C229.296,5.863,234.764,5.863,240.23,5.863z"/>
	<path fill="#F9F6F8" d="M72.65,5.863c0.688,2.144,1.928,4.288,1.967,6.451c0.192,11.869-0.059,23.748,0.162,35.607
		c0.094,4.828-1.755,6.569-6.495,6.5C52.59,54.205,54.842,55.65,54.699,41.146c-0.088-9.342-0.118-18.684,0.055-28.026
		c0.049-2.429,0.973-4.838,1.494-7.257C61.716,5.863,67.188,5.863,72.65,5.863z"/>
	<path fill="#F9F6F8" d="M128.958,253.945c-2.168,0-3.648,0-5.851,0c0-6.895,0-13.807,0-21.438c-12.371,0-24.028-0.088-35.682,0.158
		c-0.925,0.021-2.483,2.229-2.576,3.521c-0.325,4.465-0.305,8.969-0.104,13.453c0.182,3.942-1.155,5.508-5.841,3.973
		c0-6.688,0-13.59,0-21.2c-12.415,0-24.088-0.089-35.761,0.049c-4.071,0.049-5.275-1.437-3.791-5.646c12.804,0,25.651,0,39.025,0
		c0-13.395,0-26.323,0-39.963c-11.771,0-23.443-0.08-35.121,0.049c-3.943,0.039-5.512-1.271-3.835-5.871c12.744,0,25.739,0,39.099,0
		c0-12.262,0-23.846,0-36.147c-13.192,0-26.178,0-38.951,0c-1.8-4.465-0.551-5.959,3.516-5.92
		c11.673,0.108,23.35,0.029,35.622,0.029c0-8.142,0-15.675,0-23.07c4.632-2.35,6.137-0.924,6.023,3.413
		c-0.138,5.271-0.227,10.561,0.138,15.812c0.088,1.327,1.947,3.599,3.033,3.628c11.467,0.266,22.947,0.167,34.964,0.167
		c0-8.191,0-15.724,0-23.729c2.104-0.147,3.692-0.266,5.792-0.403c0,8.034,0,15.586,0,23.66c13.394,0,26.323,0,39.821,0
		c0-7.611,0-15.134,0-23.147c2.095-0.226,3.688-0.413,5.981-0.659c0,8.192,0,15.911,0,23.955c14.411,0,28.181,0,42.413,0
		c0-7.916,0-15.478,0-22.814c4.636-2.292,5.964-0.669,5.852,3.589c-0.166,6.215-0.043,12.45-0.043,19.599
		c10.529,0,20.619,0.088,30.709-0.039c4.086-0.049,5.28,1.504,3.512,5.91c-11.049,0-22.289,0-33.838,0c0,12.262,0,23.855,0,36.107
		c11.607,0,22.856,0,33.9,0c1.691,4.416,0.457,5.979-3.613,5.92c-9.922-0.127-19.851-0.039-30.22-0.039c0,13.347,0,26.09,0,39.541
		c11.274,0,22.484,0,33.519,0c1.383,5.842,1.388,5.939-3.555,6c-7.809,0.088-15.615,0.01-23.425,0.049
		c-2.104,0.011-4.202,0.178-6.839,0.296c0,7.206,0,13.952,0,21.104c-2.146,0-3.742,0-5.826,0c0-6.934,0-13.719,0-20.944
		c-14.21,0-27.945,0-42.389,0c0,7.029,0,13.942,0,21.094c-2.174,0-3.658,0-5.68,0c0-6.864,0-13.631,0-20.977
		c-13.446,0-26.362,0-39.982,0C128.958,239.854,128.958,246.758,128.958,253.945z M216.602,226.363c0-13.314,0-26.1,0-39.108
		c-14.105,0-27.879,0-41.729,0c0,13.206,0,26,0,39.108C188.835,226.363,202.443,226.363,216.602,226.363z M168.42,226.334
		c0-13.275,0-26.029,0-39.079c-13.3,0-26.25,0-39.324,0c0,13.167,0,25.951,0,39.079C142.199,226.334,154.979,226.334,168.42,226.334
		z M84.702,187.195c0,7.514-0.079,14.318,0.024,21.113c0.094,5.791-1.819,14.021,1.18,16.756c3.402,3.099,11.284,1.416,17.219,1.562
		c6.505,0.167,13.015,0.039,19.451,0.039c0-13.826,0-26.541,0-39.473C109.935,187.195,97.756,187.195,84.702,187.195z
		 M174.758,180.527c14.318,0,28.041,0,41.773,0c0-12.094,0-23.709,0-35.272c-14.137,0-27.863,0-41.773,0
		C174.758,157.193,174.758,168.63,174.758,180.527z M168.471,145.206c-13.395,0-26.296,0-39.351,0c0,12.017,0,23.601,0,35.353
		c13.251,0,26.157,0,39.351,0C168.471,168.698,168.471,157.292,168.471,145.206z M122.665,144.833
		c-11.938,0-23.586-0.088-35.229,0.157c-0.925,0.02-2.557,2.262-2.586,3.501c-0.222,9.558-0.246,19.126,0.015,28.674
		c0.034,1.299,1.952,3.619,3.038,3.64c11.462,0.274,22.928,0.176,34.763,0.176C122.665,168.729,122.665,157.145,122.665,144.833z"/>
</g>
</svg>
