<?xml version="1.0" encoding="utf-8"?>
<!-- Generator: Adobe Illustrator 16.0.0, SVG Export Plug-In . SVG Version: 6.00 Build 0)  -->
<!DOCTYPE svg PUBLIC "-//W3C//DTD SVG 1.1//EN" "http://www.w3.org/Graphics/SVG/1.1/DTD/svg11.dtd">
<svg version="1.1" id="Layer_1" xmlns="http://www.w3.org/2000/svg" xmlns:xlink="http://www.w3.org/1999/xlink" x="0px" y="0px"
	 width="300px" height="300px" viewBox="0 0 300 300" enable-background="new 0 0 300 300" xml:space="preserve">
<g>
	<g>
		<polygon fill="#E33335" points="149.657,35.955 109.651,82.09 191.378,82.133 		"/>
	</g>
	<g>
		<polygon fill="#E33335" points="124.716,81.226 124.706,101.409 174.707,101.437 174.714,81.247 		"/>
	</g>
	<g>
		<polygon fill="#E33335" points="86.565,98.765 216.38,98.83 233.667,117.111 67.323,117.024 		"/>
	</g>
	<g>
		<polygon fill="#E33335" points="88.806,115.108 89.429,142.041 211.551,142.105 211.559,115.173 		"/>
	</g>
	<g>
		<polygon fill="#E33335" points="11.542,140.247 286.541,140.384 300,156.734 0,156.576 		"/>
	</g>
	<g>
		<polygon fill="#E33335" points="21.796,155.712 21.13,202.827 277.857,202.964 277.883,155.85 		"/>
	</g>
	<g>
		<g>
			<defs>
				<polygon id="SVGID_1_" points="44.136,206.623 252.768,206.73 252.759,229.932 149.646,264.045 44.122,228.282 				"/>
			</defs>
			<clipPath id="SVGID_2_">
				<use xlink:href="#SVGID_1_"  overflow="visible"/>
			</clipPath>
			<g clip-path="url(#SVGID_2_)">
				<rect x="48.343" y="206.63" fill="#E33335" width="4.66" height="98.595"/>
				<polygon fill="#E33335" points="57.599,305.225 62.241,305.23 62.292,206.639 57.646,206.639 				"/>
				<polygon fill="#E33335" points="66.862,305.23 71.511,305.23 71.565,206.645 66.916,206.639 				"/>
				<polygon fill="#E33335" points="76.128,305.23 80.782,305.246 80.828,206.652 76.183,206.645 				"/>
				<rect x="85.427" y="206.652" fill="#E33335" width="4.649" height="98.594"/>
				<rect x="94.693" y="206.659" fill="#E33335" width="4.649" height="98.595"/>
				<rect x="104.89" y="206.659" fill="#E33335" width="4.646" height="98.595"/>
				<polygon fill="#E33335" points="115.061,305.261 119.71,305.254 119.761,206.659 115.107,206.659 				"/>
				<polygon fill="#E33335" points="124.331,305.261 128.973,305.27 129.027,206.673 124.385,206.673 				"/>
				<rect x="133.627" y="206.673" fill="#E33335" width="4.649" height="98.603"/>
				<rect x="142.891" y="206.682" fill="#E33335" width="4.653" height="98.594"/>
				<polygon fill="#E33335" points="152.135,305.275 156.786,305.283 156.837,206.682 152.188,206.682 				"/>
				<polygon fill="#E33335" points="161.396,305.29 166.057,305.29 166.105,206.693 161.445,206.688 				"/>
				<rect x="170.699" y="206.693" fill="#E33335" width="4.652" height="98.597"/>
				<polygon fill="#E33335" points="179.943,305.29 184.598,305.297 184.641,206.702 179.994,206.693 				"/>
				<polygon fill="#E33335" points="189.21,305.297 193.859,305.297 193.921,206.702 189.262,206.702 				"/>
				<rect x="198.501" y="206.709" fill="#E33335" width="4.653" height="98.596"/>
				<polygon fill="#E33335" points="207.747,305.312 212.396,305.305 212.447,206.717 207.805,206.709 				"/>
				<polygon fill="#E33335" points="217.023,305.312 221.674,305.312 221.718,206.717 217.075,206.717 				"/>
				<polygon fill="#E33335" points="226.291,305.312 230.934,305.318 230.984,206.725 226.342,206.725 				"/>
				<polygon fill="#E33335" points="235.559,305.325 240.2,305.325 240.254,206.73 235.611,206.73 				"/>
				<polygon fill="#E33335" points="245.794,206.73 245.754,305.325 250.402,305.333 250.454,206.73 				"/>
			</g>
		</g>
	</g>
	<polygon fill="#E33335" points="255.176,206.745 276.871,206.745 276.863,226.741 255.208,230.746 	"/>
	<polygon fill="#E33335" points="44.136,206.623 21.497,206.607 21.115,222.967 44.122,228.282 	"/>
</g>
</svg>
